<svg width="149" height="20" viewBox="0 0 149 20" fill="none" xmlns="http://www.w3.org/2000/svg">
<path d="M9.38597 19.5C8.03397 19.5 6.78597 19.266 5.64197 18.798C4.49797 18.3127 3.5013 17.6367 2.65197 16.77C1.81997 15.9033 1.16997 14.8807 0.701971 13.702C0.233971 12.506 -2.92659e-05 11.206 -2.92659e-05 9.80199C-2.92659e-05 8.39799 0.225304 7.11532 0.675971 5.95399C1.14397 4.79266 1.79397 3.78732 2.62597 2.93799C3.4753 2.07132 4.47197 1.41266 5.61597 0.96199C6.75997 0.49399 8.01664 0.25999 9.38597 0.25999C10.9286 0.25999 12.3153 0.563323 13.546 1.16999C14.794 1.75932 15.808 2.59999 16.588 3.69199C17.3853 4.76666 17.8706 6.03199 18.044 7.48799H14.144C13.9186 6.15332 13.3726 5.14799 12.506 4.47199C11.6393 3.77866 10.608 3.43199 9.41197 3.43199C8.35464 3.43199 7.41864 3.68332 6.60397 4.18599C5.80664 4.68866 5.18264 5.41666 4.73197 6.36999C4.2813 7.30599 4.05597 8.44132 4.05597 9.77599C4.05597 11.128 4.2813 12.298 4.73197 13.286C5.19997 14.2567 5.8413 15.0107 6.65597 15.548C7.47064 16.068 8.40664 16.328 9.46397 16.328C10.5906 16.328 11.5873 15.99 12.454 15.314C13.3206 14.638 13.884 13.6327 14.144 12.298H18.096C17.8706 13.754 17.3593 15.028 16.562 16.12C15.7646 17.1947 14.7506 18.0267 13.52 18.616C12.2893 19.2053 10.9113 19.5 9.38597 19.5ZM26.5212 19.5C25.0652 19.5 23.7825 19.214 22.6732 18.642C21.5812 18.0527 20.7232 17.238 20.0992 16.198C19.4925 15.1407 19.1892 13.9273 19.1892 12.558C19.1892 11.1887 19.4925 9.99266 20.0992 8.96999C20.7232 7.94732 21.5812 7.14999 22.6732 6.57799C23.7825 6.00599 25.0652 5.71999 26.5212 5.71999C27.9945 5.71999 29.2772 6.00599 30.3692 6.57799C31.4785 7.14999 32.3365 7.94732 32.9432 8.96999C33.5499 9.99266 33.8532 11.1887 33.8532 12.558C33.8532 13.9273 33.5412 15.1407 32.9172 16.198C32.3105 17.238 31.4525 18.0527 30.3432 18.642C29.2512 19.214 27.9772 19.5 26.5212 19.5ZM26.5212 16.432C27.1279 16.432 27.6739 16.276 28.1592 15.964C28.6619 15.652 29.0605 15.21 29.3552 14.638C29.6499 14.0487 29.7972 13.3467 29.7972 12.532C29.7972 11.336 29.4765 10.4173 28.8352 9.77599C28.2112 9.11732 27.4399 8.78799 26.5212 8.78799C25.6025 8.78799 24.8225 9.11732 24.1812 9.77599C23.5572 10.4347 23.2452 11.3533 23.2452 12.532C23.2452 13.3467 23.3925 14.0487 23.6872 14.638C23.9819 15.21 24.3719 15.652 24.8572 15.964C25.3599 16.276 25.9145 16.432 26.5212 16.432ZM45.5605 19.24V16.302L45.8205 16.354C45.6472 17.3073 45.1272 18.07 44.2605 18.642C43.4112 19.214 42.3885 19.5 41.1925 19.5C39.9792 19.5 38.9218 19.2227 38.0205 18.668C37.1365 18.096 36.4518 17.2987 35.9665 16.276C35.4812 15.2533 35.2385 14.0487 35.2385 12.662C35.2385 11.258 35.4898 10.036 35.9925 8.99599C36.4952 7.95599 37.1972 7.14999 38.0985 6.57799C39.0172 6.00599 40.0832 5.71999 41.2965 5.71999C42.5618 5.71999 43.5845 6.01466 44.3645 6.60399C45.1618 7.19332 45.6298 7.99932 45.7685 9.02199L45.4825 9.04799V0.519989H49.3825V19.24H45.5605ZM42.4405 16.38C43.3592 16.38 44.1045 16.0593 44.6765 15.418C45.2485 14.7593 45.5345 13.8233 45.5345 12.61C45.5345 11.3967 45.2398 10.4693 44.6505 9.82799C44.0785 9.16932 43.3245 8.83999 42.3885 8.83999C41.4872 8.83999 40.7418 9.16932 40.1525 9.82799C39.5805 10.4867 39.2945 11.4227 39.2945 12.636C39.2945 13.8493 39.5805 14.7767 40.1525 15.418C40.7418 16.0593 41.5045 16.38 42.4405 16.38ZM58.7407 19.5C57.2673 19.5 55.9847 19.214 54.8927 18.642C53.8007 18.0527 52.9513 17.238 52.3447 16.198C51.7553 15.158 51.4607 13.962 51.4607 12.61C51.4607 11.2407 51.7553 10.0447 52.3447 9.02199C52.9513 7.98199 53.792 7.17599 54.8667 6.60399C55.9413 6.01466 57.1893 5.71999 58.6107 5.71999C59.98 5.71999 61.1673 5.99732 62.1727 6.55199C63.178 7.10666 63.958 7.87799 64.5127 8.86599C65.0673 9.85399 65.3447 11.0153 65.3447 12.35C65.3447 12.6273 65.336 12.8873 65.3187 13.13C65.3013 13.3553 65.2753 13.572 65.2407 13.78H53.7487V11.206H62.0947L61.4187 11.674C61.4187 10.5993 61.1587 9.81066 60.6387 9.30799C60.136 8.78799 59.4427 8.52799 58.5587 8.52799C57.536 8.52799 56.7387 8.87466 56.1667 9.56799C55.612 10.2613 55.3347 11.3013 55.3347 12.688C55.3347 14.04 55.612 15.0453 56.1667 15.704C56.7387 16.3627 57.588 16.692 58.7147 16.692C59.3387 16.692 59.876 16.588 60.3267 16.38C60.7773 16.172 61.1153 15.834 61.3407 15.366H65.0067C64.5733 16.6487 63.828 17.6627 62.7707 18.408C61.7307 19.136 60.3873 19.5 58.7407 19.5ZM67.1704 19.24V0.519989H76.0624C77.449 0.519989 78.6364 0.762656 79.6244 1.24799C80.6297 1.73332 81.401 2.40932 81.9384 3.27599C82.493 4.14266 82.7704 5.15666 82.7704 6.31799C82.7704 7.47932 82.493 8.50199 81.9384 9.38599C81.3837 10.27 80.6037 10.9633 79.5984 11.466C78.6104 11.9513 77.4317 12.194 76.0624 12.194H70.3424V9.12599H75.8544C76.773 9.12599 77.4837 8.87466 77.9864 8.37199C78.5064 7.85199 78.7664 7.17599 78.7664 6.34399C78.7664 5.51199 78.5064 4.84466 77.9864 4.34199C77.4837 3.83932 76.773 3.58799 75.8544 3.58799H71.1744V19.24H67.1704ZM90.531 19.5C89.075 19.5 87.7923 19.214 86.683 18.642C85.591 18.0527 84.733 17.238 84.109 16.198C83.5023 15.1407 83.199 13.9273 83.199 12.558C83.199 11.1887 83.5023 9.99266 84.109 8.96999C84.733 7.94732 85.591 7.14999 86.683 6.57799C87.7923 6.00599 89.075 5.71999 90.531 5.71999C92.0043 5.71999 93.287 6.00599 94.379 6.57799C95.4883 7.14999 96.3463 7.94732 96.953 8.96999C97.5596 9.99266 97.863 11.1887 97.863 12.558C97.863 13.9273 97.551 15.1407 96.927 16.198C96.3203 17.238 95.4623 18.0527 94.353 18.642C93.261 19.214 91.987 19.5 90.531 19.5ZM90.531 16.432C91.1376 16.432 91.6836 16.276 92.169 15.964C92.6716 15.652 93.0703 15.21 93.365 14.638C93.6596 14.0487 93.807 13.3467 93.807 12.532C93.807 11.336 93.4863 10.4173 92.845 9.77599C92.221 9.11732 91.4496 8.78799 90.531 8.78799C89.6123 8.78799 88.8323 9.11732 88.191 9.77599C87.567 10.4347 87.255 11.3533 87.255 12.532C87.255 13.3467 87.4023 14.0487 87.697 14.638C87.9916 15.21 88.3816 15.652 88.867 15.964C89.3696 16.276 89.9243 16.432 90.531 16.432ZM99.9304 19.24V5.97999H103.752V9.09999H103.83V19.24H99.9304ZM109.16 19.24V11.024C109.16 10.296 108.97 9.74999 108.588 9.38599C108.224 9.02199 107.687 8.83999 106.976 8.83999C106.37 8.83999 105.824 8.97866 105.338 9.25599C104.87 9.53332 104.498 9.91466 104.22 10.4C103.96 10.8853 103.83 11.4573 103.83 12.116L103.492 8.91799C103.926 7.94732 104.558 7.17599 105.39 6.60399C106.24 6.01466 107.28 5.71999 108.51 5.71999C109.984 5.71999 111.11 6.13599 111.89 6.96799C112.67 7.78266 113.06 8.88332 113.06 10.27V19.24H109.16ZM115.876 19.24V5.97999H119.776V19.24H115.876ZM115.746 4.21199V-1.00136e-05H119.906V4.21199H115.746ZM128.839 19.5C127.452 19.5 126.23 19.2053 125.173 18.616C124.115 18.0267 123.283 17.212 122.677 16.172C122.087 15.132 121.793 13.9447 121.793 12.61C121.793 11.2753 122.087 10.088 122.677 9.04799C123.283 8.00799 124.115 7.19332 125.173 6.60399C126.23 6.01466 127.452 5.71999 128.839 5.71999C130 5.71999 131.04 5.93666 131.959 6.36999C132.895 6.78599 133.657 7.36666 134.247 8.11199C134.853 8.85732 135.243 9.73266 135.417 10.738H131.647C131.456 10.0967 131.109 9.61132 130.607 9.28199C130.121 8.95266 129.549 8.78799 128.891 8.78799C128.267 8.78799 127.721 8.94399 127.253 9.25599C126.802 9.56799 126.455 10.01 126.213 10.582C125.97 11.154 125.849 11.83 125.849 12.61C125.849 13.39 125.97 14.066 126.213 14.638C126.455 15.21 126.802 15.652 127.253 15.964C127.721 16.276 128.267 16.432 128.891 16.432C129.549 16.432 130.121 16.2673 130.607 15.938C131.109 15.6087 131.456 15.1233 131.647 14.482H135.417C135.243 15.4873 134.853 16.3627 134.247 17.108C133.657 17.8533 132.895 18.4427 131.959 18.876C131.04 19.292 130 19.5 128.839 19.5ZM142.788 19.5C140.847 19.5 139.304 19.11 138.16 18.33C137.016 17.55 136.392 16.4753 136.288 15.106H139.772C139.859 15.6953 140.154 16.146 140.656 16.458C141.176 16.7527 141.887 16.9 142.788 16.9C143.603 16.9 144.192 16.7873 144.556 16.562C144.938 16.3193 145.128 15.9813 145.128 15.548C145.128 15.2187 145.016 14.9673 144.79 14.794C144.582 14.6033 144.192 14.4473 143.62 14.326L141.488 13.884C139.911 13.5547 138.75 13.0607 138.004 12.402C137.259 11.726 136.886 10.8593 136.886 9.80199C136.886 8.51932 137.38 7.52266 138.368 6.81199C139.356 6.08399 140.734 5.71999 142.502 5.71999C144.253 5.71999 145.648 6.07532 146.688 6.78599C147.728 7.47932 148.3 8.44999 148.404 9.69799H144.92C144.851 9.24732 144.608 8.90932 144.192 8.68399C143.776 8.44132 143.187 8.31999 142.424 8.31999C141.731 8.31999 141.211 8.42399 140.864 8.63199C140.535 8.82266 140.37 9.09999 140.37 9.46399C140.37 9.77599 140.509 10.0273 140.786 10.218C141.064 10.3913 141.523 10.5473 142.164 10.686L144.556 11.18C145.891 11.4573 146.896 11.9773 147.572 12.74C148.266 13.4853 148.612 14.3693 148.612 15.392C148.612 16.692 148.101 17.706 147.078 18.434C146.073 19.1447 144.643 19.5 142.788 19.5Z" fill="white"/>
</svg>
