<svg width="72" height="72" viewBox="0 0 72 72" fill="none" xmlns="http://www.w3.org/2000/svg">
<rect width="72" height="72" rx="20" fill="#FB2C36"/>
<path fill-rule="evenodd" clip-rule="evenodd" d="M47.8734 17.6433C47.8734 17.2075 47.7002 16.7895 47.392 16.4813C47.0839 16.1731 46.6659 16 46.23 16C45.7942 16 45.3762 16.1731 45.068 16.4813C44.7598 16.7895 44.5867 17.2075 44.5867 17.6433V22.7783L38.7434 26.1517L32.0234 22.2717C31.7733 22.1281 31.49 22.0525 31.2017 22.0525C30.9134 22.0525 30.6301 22.1281 30.38 22.2717L23.6134 26.1783L18.9417 23.7817C18.7496 23.6832 18.5401 23.6235 18.3249 23.606C18.1098 23.5885 17.8933 23.6135 17.6879 23.6797C17.4824 23.7459 17.292 23.8518 17.1275 23.9916C16.963 24.1313 16.8277 24.3021 16.7292 24.4942C16.6307 24.6862 16.571 24.8958 16.5535 25.1109C16.536 25.3261 16.5611 25.5425 16.6272 25.748C16.6934 25.9534 16.7994 26.1438 16.9391 26.3083C17.0789 26.4728 17.2496 26.6082 17.4417 26.7067L22.035 29.0617V36.725C22.035 37.3117 22.3484 37.8533 22.8567 38.1467L29.5784 42.0267V48.9417L23.1317 52.9633C22.94 53.0732 22.7725 53.2207 22.6391 53.3968C22.5057 53.5729 22.4092 53.7741 22.3554 53.9884C22.3015 54.2027 22.2914 54.4256 22.3257 54.6439C22.36 54.8621 22.4379 55.0712 22.5548 55.2587C22.6718 55.4462 22.8253 55.6081 23.0063 55.7349C23.1872 55.8616 23.3919 55.9506 23.608 55.9965C23.8241 56.0423 24.0473 56.0441 24.2641 56.0018C24.481 55.9594 24.687 55.8738 24.87 55.75L31.41 51.6717L37.9217 55.43C38.1717 55.5736 38.455 55.6491 38.7434 55.6491C39.0317 55.6491 39.315 55.5736 39.565 55.43L46.3034 51.54L52.005 55.2333C52.3704 55.4541 52.8073 55.524 53.2232 55.4282C53.6392 55.3325 54.0016 55.0787 54.2338 54.7205C54.466 54.3623 54.5496 53.9279 54.4671 53.5091C54.3846 53.0903 54.1424 52.72 53.7917 52.4767L47.9084 48.665V42.0267L54.63 38.1467C54.8794 38.0019 55.0865 37.7943 55.2307 37.5446C55.3748 37.2948 55.451 37.0117 55.4517 36.7233V28.04C55.451 27.7516 55.3748 27.4685 55.2307 27.2188C55.0865 26.969 54.8794 26.7614 54.63 26.6167L47.8734 22.7167V17.6433ZM44.6234 42.005L38.7434 38.61L32.8634 42.005V48.7167L38.7434 52.11L44.6234 48.7167V42.005ZM52.165 35.775L46.3534 39.1317L40.405 35.6983V28.9867L46.285 25.5917L52.1667 28.9867L52.165 35.775ZM37.0817 35.6983V28.9867L31.2 25.5917L25.3217 28.9867V35.775L31.1334 39.1333L37.0817 35.6983ZM48.795 29.5867C49.7034 29.5867 50.4384 30.3217 50.4384 31.2283V33.5317C50.4454 33.7518 50.4081 33.971 50.3287 34.1764C50.2493 34.3818 50.1294 34.5692 49.9762 34.7274C49.823 34.8855 49.6396 35.0113 49.4368 35.0972C49.234 35.1831 49.0161 35.2273 48.7959 35.2273C48.5756 35.2273 48.3577 35.1831 48.1549 35.0972C47.9521 35.0113 47.7687 34.8855 47.6155 34.7274C47.4623 34.5692 47.3424 34.3818 47.263 34.1764C47.1836 33.971 47.1463 33.7518 47.1534 33.5317V31.23C47.1534 30.3233 47.8867 29.5867 48.795 29.5867ZM37.7534 45.0883C37.5644 44.9841 37.3567 44.9182 37.1422 44.8943C36.9277 44.8704 36.7107 44.8889 36.5034 44.9489C36.296 45.0089 36.1026 45.1091 35.934 45.2438C35.7654 45.3785 35.625 45.5452 35.5209 45.7342C35.4167 45.9232 35.3507 46.1308 35.3268 46.3453C35.3029 46.5598 35.3214 46.7769 35.3814 46.9842C35.4414 47.1915 35.5416 47.3849 35.6763 47.5535C35.8111 47.7221 35.9777 47.8625 36.1667 47.9667L38.46 49.23C38.6494 49.3397 38.8587 49.4105 39.0758 49.4382C39.2928 49.466 39.5132 49.45 39.7241 49.3914C39.9349 49.3328 40.1319 49.2327 40.3035 49.097C40.4751 48.9612 40.6179 48.7925 40.7235 48.6008C40.829 48.4091 40.8952 48.1983 40.9182 47.9807C40.9412 47.7631 40.9205 47.5431 40.8573 47.3336C40.7941 47.1241 40.6897 46.9293 40.5502 46.7607C40.4107 46.5921 40.239 46.453 40.045 46.3517L37.7534 45.0883ZM35.2517 33.1133C35.4667 33.4924 35.5223 33.9413 35.4064 34.3614C35.2904 34.7814 35.0124 35.1383 34.6334 35.3533L32.2367 36.7133C32.0487 36.8284 31.8396 36.9045 31.6216 36.9371C31.4036 36.9697 31.1814 36.9581 30.968 36.9031C30.7546 36.848 30.5544 36.7506 30.3795 36.6166C30.2045 36.4826 30.0582 36.3148 29.9494 36.1231C29.8406 35.9315 29.7715 35.7199 29.7461 35.501C29.7208 35.2821 29.7397 35.0603 29.8018 34.8488C29.8639 34.6374 29.9679 34.4406 30.1076 34.2701C30.2473 34.0997 30.4199 33.9591 30.615 33.8567L33.0117 32.4967C33.3905 32.2815 33.8393 32.2256 34.2594 32.3413C34.6794 32.4569 35.0363 32.7346 35.2517 33.1133Z" fill="white"/>
</svg>
