<svg width="72" height="72" viewBox="0 0 72 72" fill="none" xmlns="http://www.w3.org/2000/svg">
<rect width="72" height="72" rx="20" fill="#2B7FFF"/>
<path d="M46.8628 38.608C52.2773 38.608 56.6667 34.2187 56.6667 28.8041C56.6667 23.3895 52.2773 19.0002 46.8628 19.0002C41.4482 19.0002 37.0588 23.3895 37.0588 28.8041C37.0588 34.2187 41.4482 38.608 46.8628 38.608Z" stroke="white" stroke-width="4"/>
<path d="M34.6078 58.2158C38.6687 58.2158 41.9608 54.9238 41.9608 50.8629C41.9608 46.802 38.6687 43.5099 34.6078 43.5099C30.5469 43.5099 27.2549 46.802 27.2549 50.8629C27.2549 54.9238 30.5469 58.2158 34.6078 58.2158Z" stroke="white" stroke-width="4"/>
<path d="M21.1275 38.608C24.5115 38.608 27.2549 35.8646 27.2549 32.4805C27.2549 29.0964 24.5115 26.3531 21.1275 26.3531C17.7434 26.3531 15 29.0964 15 32.4805C15 35.8646 17.7434 38.608 21.1275 38.608Z" stroke="white" stroke-width="4"/>
</svg>
