<svg width="72" height="72" viewBox="0 0 72 72" fill="none" xmlns="http://www.w3.org/2000/svg">
<rect width="72" height="72" rx="20" fill="#FB2C36"/>
<path d="M55.72 37C54.2755 35.2948 52.224 34.2188 50 34C50 30.1 48.64 26.8 45.92 24.08C43.2 21.36 39.9 20 36 20C32.84 20 30 20.94 27.5 22.86C25 24.78 23.34 27.24 22.5 30.3C20 30.86 17.92 32.16 16.34 34.2C14.76 36.24 14 38.56 14 41.16C14 44.18 15.08 46.76 17.22 48.86C19.38 51 22 52 25 52H49C51.5 52 53.62 51.12 55.38 49.38C57.12 47.62 58 45.5 58 43C58 40.7 57.24 38.7 55.72 37ZM52.54 46.54C51.58 47.52 50.4 48 49 48H25C23.06 48 21.42 47.32 20.06 46C18.68 44.58 18 42.94 18 41C18 39.06 18.68 37.42 20.06 36.06C21.42 34.68 23.06 34 25 34H26C26 31.24 27 28.88 28.92 26.92C30.88 25 33.24 24 36 24C38.76 24 41.12 25 43.08 26.92C45 28.88 46 31.24 46 34V38H49C50.4 38 51.58 38.48 52.54 39.46C53.5 40.44 54 41.6 54 43C54 44.4 53.52 45.58 52.54 46.54ZM28.06 32.9C28.06 31.34 29.34 30.06 30.9 30.06C32.46 30.06 33.74 31.34 33.74 32.9C33.74 34.46 32.46 35.74 30.9 35.74C29.34 35.74 28.06 34.46 28.06 32.9ZM43.94 43.1C43.94 44.66 42.66 45.94 41.1 45.94C39.54 45.94 38.26 44.66 38.26 43.1C38.26 41.54 39.54 40.26 41.1 40.26C42.66 40.26 43.94 41.54 43.94 43.1ZM41.6 30L44 32.4L30.4 46L28 43.6L41.6 30Z" fill="white"/>
</svg>
