<svg width="72" height="72" viewBox="0 0 72 72" fill="none" xmlns="http://www.w3.org/2000/svg">
<rect width="72" height="72" rx="20" fill="#FB2C36"/>
<path d="M40 19.9992V41.0749C41.5251 41.9552 42.7171 43.3141 43.391 44.9408C44.065 46.5675 44.1832 48.3711 43.7274 50.0718C43.2716 51.7725 42.2672 53.2753 40.8701 54.3472C39.4729 55.419 37.7611 56 36 56C34.2389 56 32.5271 55.419 31.1299 54.3472C29.7328 53.2753 28.7284 51.7725 28.2726 50.0718C27.8168 48.3711 27.935 46.5675 28.609 44.9408C29.2829 43.3141 30.4749 41.9552 32 41.0749V19.9992C32 18.9385 32.4214 17.9213 33.1716 17.1713C33.9217 16.4213 34.9391 16 36 16C37.0609 16 38.0783 16.4213 38.8284 17.1713C39.5786 17.9213 40 18.9385 40 19.9992Z" stroke="white" stroke-width="4" stroke-linecap="round" stroke-linejoin="round"/>
</svg>
