<svg width="30" height="30" viewBox="0 0 30 30" fill="none" xmlns="http://www.w3.org/2000/svg">
<path d="M10.44 25.3025C10.9839 25.9903 11.6771 26.5455 12.467 26.9262C13.257 27.3069 14.1231 27.5031 15 27.5C15.8769 27.5031 16.743 27.3069 17.533 26.9262C18.3229 26.5455 19.0161 25.9903 19.56 25.3025C16.5338 25.7121 13.4662 25.7121 10.44 25.3025ZM23.4375 11.25V12.13C23.4375 13.1863 23.7375 14.2188 24.3025 15.0975L25.6875 17.2513C26.9513 19.2188 25.9863 21.8925 23.7875 22.5138C18.0421 24.1408 11.9579 24.1408 6.2125 22.5138C4.01375 21.8925 3.04875 19.2188 4.3125 17.2513L5.6975 15.0975C6.26402 14.2115 6.56464 13.1816 6.56375 12.13V11.25C6.56375 6.4175 10.3413 2.5 15 2.5C19.6587 2.5 23.4375 6.4175 23.4375 11.25Z" fill="#101828"/>
</svg>
