<svg width="50" height="50" viewBox="0 0 50 50" fill="none" xmlns="http://www.w3.org/2000/svg">
<rect width="50" height="50" rx="20" fill="#FFF7A9"/>
<path d="M15 27.5C14.7634 27.5008 14.5315 27.4345 14.3312 27.3087C14.1308 27.183 13.9703 27.003 13.8682 26.7896C13.7661 26.5762 13.7266 26.3383 13.7544 26.1033C13.7821 25.8684 13.876 25.6462 14.025 25.4625L26.4 12.7125C26.4928 12.6054 26.6193 12.533 26.7587 12.5072C26.8981 12.4814 27.0421 12.5038 27.1672 12.5707C27.2922 12.6375 27.3907 12.7449 27.4467 12.8752C27.5026 13.0054 27.5126 13.1508 27.475 13.2875L25.075 20.8125C25.0042 21.0019 24.9805 21.2057 25.0057 21.4063C25.031 21.6069 25.1046 21.7984 25.2201 21.9643C25.3356 22.1302 25.4897 22.2657 25.6691 22.359C25.8485 22.4523 26.0478 22.5007 26.25 22.5H35C35.2365 22.4992 35.4685 22.5655 35.6688 22.6913C35.8691 22.8171 36.0297 22.9971 36.1318 23.2104C36.2339 23.4238 36.2734 23.6618 36.2456 23.8967C36.2179 24.1316 36.124 24.3538 35.975 24.5375L23.6 37.2875C23.5072 37.3947 23.3807 37.4671 23.2413 37.4929C23.1019 37.5186 22.9578 37.4963 22.8328 37.4294C22.7078 37.3625 22.6093 37.2551 22.5533 37.1249C22.4974 36.9946 22.4874 36.8492 22.525 36.7125L24.925 29.1875C24.9958 28.9981 25.0195 28.7944 24.9943 28.5938C24.969 28.3932 24.8954 28.2017 24.7799 28.0357C24.6643 27.8698 24.5103 27.7344 24.3309 27.6411C24.1515 27.5478 23.9522 27.4994 23.75 27.5H15Z" stroke="#FF6900" stroke-width="3" stroke-linecap="round" stroke-linejoin="round"/>
</svg>
