<svg width="50" height="50" viewBox="0 0 50 50" fill="none" xmlns="http://www.w3.org/2000/svg">
<rect width="50" height="50" rx="20" fill="#EFF6FF"/>
<path d="M32.2941 26.4118C34.8931 26.4118 37 24.3049 37 21.7059C37 19.1069 34.8931 17 32.2941 17C29.6951 17 27.5882 19.1069 27.5882 21.7059C27.5882 24.3049 29.6951 26.4118 32.2941 26.4118Z" stroke="#448EFF" stroke-width="3"/>
<path d="M26.4118 35.8235C28.361 35.8235 29.9412 34.2434 29.9412 32.2941C29.9412 30.3449 28.361 28.7647 26.4118 28.7647C24.4625 28.7647 22.8824 30.3449 22.8824 32.2941C22.8824 34.2434 24.4625 35.8235 26.4118 35.8235Z" stroke="#448EFF" stroke-width="3"/>
<path d="M19.9412 26.4118C21.5655 26.4118 22.8824 25.095 22.8824 23.4706C22.8824 21.8462 21.5655 20.5294 19.9412 20.5294C18.3168 20.5294 17 21.8462 17 23.4706C17 25.095 18.3168 26.4118 19.9412 26.4118Z" stroke="#448EFF" stroke-width="3"/>
</svg>
