<svg width="50" height="50" viewBox="0 0 50 50" fill="none" xmlns="http://www.w3.org/2000/svg">
<rect width="50" height="50" rx="20" fill="#FEF2F2"/>
<g clip-path="url(#clip0_421_552)">
<path d="M27.5 15V28.175C28.4532 28.7253 29.1982 29.5748 29.6194 30.5917C30.0406 31.6086 30.1145 32.7361 29.8296 33.7992C29.5448 34.8624 28.917 35.8018 28.0438 36.4719C27.1706 37.1419 26.1007 37.5051 25 37.5051C23.8993 37.5051 22.8294 37.1419 21.9562 36.4719C21.083 35.8018 20.4552 34.8624 20.1704 33.7992C19.8855 32.7361 19.9594 31.6086 20.3806 30.5917C20.8018 29.5748 21.5468 28.7253 22.5 28.175V15C22.5 14.337 22.7634 13.7011 23.2322 13.2322C23.7011 12.7634 24.337 12.5 25 12.5C25.663 12.5 26.2989 12.7634 26.7678 13.2322C27.2366 13.7011 27.5 14.337 27.5 15Z" stroke="#FB2C36" stroke-width="3" stroke-linecap="round" stroke-linejoin="round"/>
</g>
<defs>
<clipPath id="clip0_421_552">
<rect width="30" height="30" fill="white" transform="translate(10 10)"/>
</clipPath>
</defs>
</svg>
