<svg width="50" height="50" viewBox="0 0 50 50" fill="none" xmlns="http://www.w3.org/2000/svg">
<rect width="50" height="50" rx="20" fill="#FFF7A9"/>
<path d="M37.325 25.625C36.4222 24.5592 35.14 23.8868 33.75 23.75C33.75 21.3125 32.9 19.25 31.2 17.55C29.5 15.85 27.4375 15 25 15C23.025 15 21.25 15.5875 19.6875 16.7875C18.125 17.9875 17.0875 19.525 16.5625 21.4375C15 21.7875 13.7 22.6 12.7125 23.875C11.725 25.15 11.25 26.6 11.25 28.225C11.25 30.1125 11.925 31.725 13.2625 33.0375C14.6125 34.375 16.25 35 18.125 35H33.125C34.6875 35 36.0125 34.45 37.1125 33.3625C38.2 32.2625 38.75 30.9375 38.75 29.375C38.75 27.9375 38.275 26.6875 37.325 25.625ZM35.3375 31.5875C34.7375 32.2 34 32.5 33.125 32.5H18.125C16.9125 32.5 15.8875 32.075 15.0375 31.25C14.175 30.3625 13.75 29.3375 13.75 28.125C13.75 26.9125 14.175 25.8875 15.0375 25.0375C15.8875 24.175 16.9125 23.75 18.125 23.75H18.75C18.75 22.025 19.375 20.55 20.575 19.325C21.8 18.125 23.275 17.5 25 17.5C26.725 17.5 28.2 18.125 29.425 19.325C30.625 20.55 31.25 22.025 31.25 23.75V26.25H33.125C34 26.25 34.7375 26.55 35.3375 27.1625C35.9375 27.775 36.25 28.5 36.25 29.375C36.25 30.25 35.95 30.9875 35.3375 31.5875ZM20.0375 23.0625C20.0375 22.0875 20.8375 21.2875 21.8125 21.2875C22.7875 21.2875 23.5875 22.0875 23.5875 23.0625C23.5875 24.0375 22.7875 24.8375 21.8125 24.8375C20.8375 24.8375 20.0375 24.0375 20.0375 23.0625ZM29.9625 29.4375C29.9625 30.4125 29.1625 31.2125 28.1875 31.2125C27.2125 31.2125 26.4125 30.4125 26.4125 29.4375C26.4125 28.4625 27.2125 27.6625 28.1875 27.6625C29.1625 27.6625 29.9625 28.4625 29.9625 29.4375ZM28.5 21.25L30 22.75L21.5 31.25L20 29.75L28.5 21.25Z" fill="#FF6900"/>
</svg>
