<svg width="29" height="29" viewBox="0 0 29 29" fill="none" xmlns="http://www.w3.org/2000/svg">
<rect width="21.0162" height="21.0162" fill="white"/>
<path fill-rule="evenodd" clip-rule="evenodd" d="M28.92 14.8297C28.92 13.8015 28.8277 12.8129 28.6564 11.8638H15V17.4726H22.8036C22.4675 19.2851 21.4459 20.8208 19.9102 21.849V25.4872H24.5964C27.3382 22.9629 28.92 19.2456 28.92 14.8297Z" fill="#4285F4"/>
<path fill-rule="evenodd" clip-rule="evenodd" d="M15 28.9999C18.915 28.9999 22.1972 27.7015 24.5963 25.4869L19.9102 21.8487C18.6118 22.7187 16.9509 23.2328 15 23.2328C11.2234 23.2328 8.02678 20.6822 6.88655 17.2549H2.04224V21.0117C4.42815 25.7506 9.33178 28.9999 15 28.9999Z" fill="#34A853"/>
<path fill-rule="evenodd" clip-rule="evenodd" d="M6.88659 17.2551C6.59659 16.3851 6.43182 15.4558 6.43182 14.5001C6.43182 13.5444 6.59659 12.6151 6.88659 11.7451V7.98828H2.04227C1.06023 9.94578 0.5 12.1603 0.5 14.5001C0.5 16.8399 1.06023 19.0544 2.04227 21.0119L6.88659 17.2551Z" fill="#FBBC05"/>
<path fill-rule="evenodd" clip-rule="evenodd" d="M15 5.76705C17.1288 5.76705 19.0402 6.49864 20.5429 7.93545L24.7018 3.77659C22.1906 1.43682 18.9084 0 15 0C9.33178 0 4.42815 3.24932 2.04224 7.98818L6.88655 11.745C8.02678 8.31773 11.2234 5.76705 15 5.76705Z" fill="#EA4335"/>
</svg>
