<svg width="21" height="21" viewBox="0 0 21 21" fill="none" xmlns="http://www.w3.org/2000/svg">
<path d="M17.7188 2.95312H3.28125C2.84613 2.95313 2.42883 3.12598 2.12115 3.43365C1.81348 3.74133 1.64063 4.15863 1.64062 4.59375V13.125C1.64062 13.5601 1.81348 13.9774 2.12115 14.2851C2.42883 14.5928 2.84613 14.7656 3.28125 14.7656H17.7188C18.1539 14.7656 18.5712 14.5928 18.8788 14.2851C19.1865 13.9774 19.3594 13.5601 19.3594 13.125V4.59375C19.3594 4.15863 19.1865 3.74133 18.8788 3.43365C18.5712 3.12598 18.1539 2.95312 17.7188 2.95312ZM17.3906 12.7969H3.60938V4.92188H17.3906V12.7969ZM19.3594 17.0625C19.3594 17.3236 19.2557 17.574 19.0711 17.7586C18.8865 17.9432 18.6361 18.0469 18.375 18.0469H2.625C2.36393 18.0469 2.11355 17.9432 1.92894 17.7586C1.74434 17.574 1.64062 17.3236 1.64062 17.0625C1.64062 16.8014 1.74434 16.551 1.92894 16.3664C2.11355 16.1818 2.36393 16.0781 2.625 16.0781H18.375C18.6361 16.0781 18.8865 16.1818 19.0711 16.3664C19.2557 16.551 19.3594 16.8014 19.3594 17.0625ZM8.53125 10.5V7.21875C8.53119 7.04301 8.57818 6.87045 8.66734 6.719C8.75651 6.56756 8.88459 6.44274 9.03829 6.35752C9.19199 6.2723 9.3657 6.22978 9.54138 6.23438C9.71706 6.23898 9.88831 6.29053 10.0373 6.38367L12.6623 8.0243C12.8041 8.11275 12.9209 8.23582 13.002 8.38191C13.083 8.528 13.1255 8.69231 13.1255 8.85938C13.1255 9.02644 13.083 9.19075 13.002 9.33684C12.9209 9.48293 12.8041 9.606 12.6623 9.69445L10.0373 11.3351C9.88831 11.4282 9.71706 11.4798 9.54138 11.4844C9.3657 11.489 9.19199 11.4464 9.03829 11.3612C8.88459 11.276 8.75651 11.1512 8.66734 10.9997C8.57818 10.8483 8.53119 10.6757 8.53125 10.5Z" fill="white"/>
</svg>
