<svg width="35" height="32" viewBox="0 0 35 32" fill="none" xmlns="http://www.w3.org/2000/svg">
<path d="M32.4043 0.411508L17.409 15.0271L2.41369 0.411508C2.14586 0.150659 1.78677 0.00468779 1.41291 0.00468779C1.03905 0.00468779 0.679956 0.150659 0.412128 0.411508C0.28172 0.538204 0.178054 0.689773 0.107264 0.857245C0.0364742 1.02472 0 1.20469 0 1.38651C0 1.56833 0.0364742 1.7483 0.107264 1.91577C0.178054 2.08324 0.28172 2.23481 0.412128 2.36151L16.3637 17.9099C16.6437 18.182 17.0186 18.3342 17.409 18.3342C17.7994 18.3342 18.1744 18.182 18.4543 17.9099L34.4059 2.36151C34.537 2.23474 34.6413 2.08288 34.7125 1.91498C34.7837 1.74707 34.8204 1.56655 34.8204 1.38416C34.8204 1.20178 34.7837 1.02126 34.7125 0.853352C34.6413 0.685445 34.537 0.533587 34.4059 0.40682C34.1381 0.145971 33.779 0 33.4051 0C33.0312 0 32.6721 0.145971 32.4043 0.40682V0.411508Z" fill="white" fill-opacity="0.3"/>
<path d="M32.4043 13.8434L17.409 28.459L2.41369 13.8434C2.14586 13.5825 1.78677 13.4366 1.41291 13.4366C1.03905 13.4366 0.679956 13.5825 0.412128 13.8434C0.28172 13.9701 0.178054 14.1217 0.107264 14.2891C0.0364742 14.4566 0 14.6366 0 14.8184C0 15.0002 0.0364742 15.1802 0.107264 15.3477C0.178054 15.5151 0.28172 15.6667 0.412128 15.7934L16.3637 31.3418C16.6437 31.6139 17.0186 31.766 17.409 31.766C17.7994 31.766 18.1744 31.6139 18.4543 31.3418L34.4059 15.7934C34.537 15.6666 34.6413 15.5148 34.7125 15.3469C34.7837 15.179 34.8204 14.9984 34.8204 14.816C34.8204 14.6337 34.7837 14.4531 34.7125 14.2852C34.6413 14.1173 34.537 13.9655 34.4059 13.8387C34.1381 13.5779 33.779 13.4319 33.4051 13.4319C33.0312 13.4319 32.6721 13.5779 32.4043 13.8387V13.8434Z" fill="white" fill-opacity="0.5"/>
</svg>
