<svg width="52" height="52" viewBox="0 0 52 52" fill="none" xmlns="http://www.w3.org/2000/svg">
<circle cx="26" cy="26" r="26" fill="white"/>
<path fill-rule="evenodd" clip-rule="evenodd" d="M39.242 14.7278C39.5032 14.4666 39.65 14.1123 39.65 13.7428C39.65 13.3734 39.5032 13.0191 39.242 12.7579C38.9808 12.4967 38.6265 12.3499 38.2571 12.3499C37.8876 12.3499 37.5333 12.4967 37.2721 12.7579L25.9999 24.0301L14.7277 12.7579C14.4665 12.4967 14.1122 12.3499 13.7428 12.3499C13.3734 12.3499 13.0191 12.4967 12.7578 12.7579C12.4966 13.0191 12.3499 13.3734 12.3499 13.7428C12.3499 14.1123 12.4966 14.4666 12.7578 14.7278L24.03 26L12.7578 37.2722C12.4966 37.5334 12.3499 37.8877 12.3499 38.2571C12.3499 38.6266 12.4966 38.9809 12.7578 39.2421C13.0191 39.5033 13.3734 39.6501 13.7428 39.6501C14.1122 39.6501 14.4665 39.5033 14.7277 39.2421L25.9999 27.9699L37.2721 39.2421C37.5333 39.5033 37.8876 39.6501 38.2571 39.6501C38.6265 39.6501 38.9808 39.5033 39.242 39.2421C39.5032 38.9809 39.65 38.6266 39.65 38.2571C39.65 37.8877 39.5032 37.5334 39.242 37.2722L27.9698 26L39.242 14.7278Z" fill="black"/>
</svg>
