<svg width="17" height="10" viewBox="0 0 17 10" fill="none" xmlns="http://www.w3.org/2000/svg">
<mask id="path-1-inside-1_306_1331" fill="white">
<path d="M1.94223 0.214987C1.86955 0.146313 1.78407 0.0926262 1.69065 0.0569904C1.59723 0.0213547 1.4977 0.0044679 1.39775 0.00729525C1.29781 0.0101226 1.1994 0.0326084 1.10814 0.0734684C1.01688 0.114328 0.934568 0.172763 0.865895 0.245435C0.797221 0.318107 0.743533 0.403594 0.707898 0.497015C0.672262 0.590435 0.655376 0.68996 0.658203 0.789906C0.66103 0.889853 0.683516 0.988264 0.724376 1.07952C0.765236 1.17078 0.82367 1.25309 0.896342 1.32177L7.74711 7.79193C7.88844 7.92555 8.07555 8 8.27005 8C8.46454 8 8.65166 7.92555 8.79299 7.79193L15.6445 1.32177C15.7188 1.25355 15.7787 1.17125 15.8209 1.07966C15.8631 0.988064 15.8867 0.889002 15.8903 0.788224C15.8939 0.687446 15.8774 0.58696 15.8418 0.492605C15.8062 0.398249 15.7522 0.311904 15.683 0.238586C15.6138 0.165267 15.5307 0.106435 15.4385 0.0655087C15.3463 0.024582 15.247 0.00237614 15.1461 0.000180502C15.0453 -0.00201514 14.9451 0.0158431 14.8512 0.0527185C14.7574 0.0895939 14.6718 0.144751 14.5994 0.214986L8.27005 6.1919L1.94223 0.214987Z"/>
</mask>
<path d="M1.94223 0.214987C1.86955 0.146313 1.78407 0.0926262 1.69065 0.0569904C1.59723 0.0213547 1.4977 0.0044679 1.39775 0.00729525C1.29781 0.0101226 1.1994 0.0326084 1.10814 0.0734684C1.01688 0.114328 0.934568 0.172763 0.865895 0.245435C0.797221 0.318107 0.743533 0.403594 0.707898 0.497015C0.672262 0.590435 0.655376 0.68996 0.658203 0.789906C0.66103 0.889853 0.683516 0.988264 0.724376 1.07952C0.765236 1.17078 0.82367 1.25309 0.896342 1.32177L7.74711 7.79193C7.88844 7.92555 8.07555 8 8.27005 8C8.46454 8 8.65166 7.92555 8.79299 7.79193L15.6445 1.32177C15.7188 1.25355 15.7787 1.17125 15.8209 1.07966C15.8631 0.988064 15.8867 0.889002 15.8903 0.788224C15.8939 0.687446 15.8774 0.58696 15.8418 0.492605C15.8062 0.398249 15.7522 0.311904 15.683 0.238586C15.6138 0.165267 15.5307 0.106435 15.4385 0.0655087C15.3463 0.024582 15.247 0.00237614 15.1461 0.000180502C15.0453 -0.00201514 14.9451 0.0158431 14.8512 0.0527185C14.7574 0.0895939 14.6718 0.144751 14.5994 0.214986L8.27005 6.1919L1.94223 0.214987Z" fill="#35A9FF"/>
<path d="M1.94223 0.214987L-0.118261 2.39544L-0.11776 2.39592L1.94223 0.214987ZM0.896342 1.32177L-1.16414 3.50222L-1.16353 3.50281L0.896342 1.32177ZM7.74711 7.79193L9.80811 5.61196L9.80698 5.61089L7.74711 7.79193ZM8.27005 8V5V8ZM8.79299 7.79193L6.73324 5.61078L6.73199 5.61196L8.79299 7.79193ZM15.6445 1.32177L13.615 -0.887532L13.5998 -0.873563L13.5848 -0.859388L15.6445 1.32177ZM15.1461 0.000180565L15.2115 -2.99911L15.1461 0.000180565ZM14.5994 0.214986L16.6591 2.39616L16.6741 2.38203L16.6889 2.36769L14.5994 0.214986ZM8.27005 6.1919L6.21006 8.37283L8.2698 10.3183L10.3298 8.37308L8.27005 6.1919ZM1.94223 0.214987L4.00271 -1.96547C3.64369 -2.30474 3.22137 -2.56996 2.75986 -2.746L1.69065 0.0569906L0.621429 2.85998C0.346762 2.75521 0.0954135 2.59736 -0.118261 2.39544L1.94223 0.214987ZM1.69065 0.0569906L2.75986 -2.746C2.29836 -2.92205 1.80669 -3.00547 1.31292 -2.9915L1.39775 0.0072951L1.48259 3.0061C1.18871 3.01441 0.896094 2.96476 0.621429 2.85998L1.69065 0.0569906ZM1.39775 0.0072951L1.31292 -2.9915C0.819164 -2.97754 0.332996 -2.86645 -0.117826 -2.6646L1.10814 0.0734682L2.33411 2.81153C2.0658 2.93167 1.77645 2.99778 1.48259 3.0061L1.39775 0.0072951ZM1.10814 0.0734682L-0.117826 -2.6646C-0.568649 -2.46274 -0.975301 -2.17407 -1.31456 -1.81505L0.865895 0.245435L3.04635 2.30592C2.84444 2.51959 2.60242 2.6914 2.33411 2.81153L1.10814 0.0734682ZM0.865895 0.245435L-1.31456 -1.81505C-1.65383 -1.45603 -1.91905 -1.03371 -2.0951 -0.572202L0.707898 0.497015L3.51089 1.56623C3.40612 1.8409 3.24827 2.09225 3.04635 2.30592L0.865895 0.245435ZM0.707898 0.497015L-2.0951 -0.572202C-2.27114 -0.110691 -2.35457 0.38098 -2.3406 0.874738L0.658203 0.789907L3.657 0.705075C3.66532 0.99894 3.61567 1.29156 3.51089 1.56623L0.707898 0.497015ZM0.658203 0.789907L-2.3406 0.874738C-2.32663 1.36849 -2.21555 1.85466 -2.01369 2.30549L0.724376 1.07952L3.46244 -0.146444C3.58258 0.121868 3.64869 0.411215 3.657 0.705075L0.658203 0.789907ZM0.724376 1.07952L-2.01369 2.30549C-1.81183 2.75631 -1.52316 3.16296 -1.16414 3.50222L0.896342 1.32177L2.95683 -0.858691C3.1705 -0.656778 3.34231 -0.414757 3.46244 -0.146444L0.724376 1.07952ZM0.896342 1.32177L-1.16353 3.50281L5.68724 9.97297L7.74711 7.79193L9.80698 5.61089L2.95621 -0.859273L0.896342 1.32177ZM7.74711 7.79193L5.68611 9.9719C6.38445 10.6321 7.30902 11 8.27005 11V8V5C8.84209 5 9.39243 5.21897 9.80811 5.61196L7.74711 7.79193ZM8.27005 8V11C9.23108 11 10.1557 10.6321 10.854 9.9719L8.79299 7.79193L6.73199 5.61196C7.14767 5.21897 7.69801 5 8.27005 5V8ZM8.79299 7.79193L10.8527 9.97309L17.7043 3.50292L15.6445 1.32177L13.5848 -0.859388L6.73324 5.61078L8.79299 7.79193ZM15.6445 1.32177L17.674 3.53106C18.041 3.19398 18.3373 2.78734 18.5458 2.33476L15.8209 1.07966L13.0961 -0.175448C13.2202 -0.444847 13.3966 -0.686891 13.615 -0.887532L15.6445 1.32177ZM15.8209 1.07966L18.5458 2.33476C18.7542 1.88218 18.8707 1.3927 18.8884 0.894743L15.8903 0.788224L12.8922 0.681704C12.9027 0.385308 12.972 0.0939483 13.0961 -0.175448L15.8209 1.07966ZM15.8903 0.788224L18.8884 0.894743C18.9061 0.396768 18.8246 -0.0997456 18.6488 -0.565958L15.8418 0.492605L13.0348 1.55117C12.9301 1.27367 12.8816 0.978123 12.8922 0.681704L15.8903 0.788224ZM15.8418 0.492605L18.6488 -0.565958C18.473 -1.03217 18.2063 -1.45882 17.8642 -1.82111L15.683 0.238586L13.5018 2.29828C13.2982 2.08263 13.1394 1.82867 13.0348 1.55117L15.8418 0.492605ZM15.683 0.238586L17.8642 -1.82111C17.5221 -2.18339 17.1114 -2.47408 16.656 -2.67631L15.4385 0.0655087L14.2209 2.80733C13.9499 2.68695 13.7054 2.51392 13.5018 2.29828L15.683 0.238586ZM15.4385 0.0655087L16.656 -2.67631C16.2006 -2.87854 15.7096 -2.98826 15.2115 -2.99911L15.1461 0.000180565L15.0808 2.99947C14.7843 2.99301 14.492 2.9277 14.2209 2.80733L15.4385 0.0655087ZM15.1461 0.000180565L15.2115 -2.99911C14.7133 -3.00996 14.218 -2.92172 13.7542 -2.73951L14.8512 0.0527185L15.9482 2.84495C15.6722 2.9534 15.3773 3.00593 15.0808 2.99947L15.1461 0.000180565ZM14.8512 0.0527185L13.7542 -2.73951C13.2904 -2.5573 12.8675 -2.28476 12.5099 -1.93772L14.5994 0.214986L16.6889 2.36769C16.476 2.57426 16.2243 2.73649 15.9482 2.84495L14.8512 0.0527185ZM14.5994 0.214986L12.5397 -1.96619L6.21032 4.01072L8.27005 6.1919L10.3298 8.37308L16.6591 2.39616L14.5994 0.214986ZM8.27005 6.1919L10.33 4.01097L4.00221 -1.96594L1.94223 0.214987L-0.11776 2.39592L6.21006 8.37283L8.27005 6.1919Z" fill="#35A9FF" mask="url(#path-1-inside-1_306_1331)"/>
</svg>
